<?xml version="1.0" encoding="utf-8"?>
<!-- Designed by Vexels.com - 2020 All Rights Reserved - https://vexels.com/terms-and-conditions/  -->
<svg version="1.1" id="Layer_1" xmlns="http://www.w3.org/2000/svg" xmlns:xlink="http://www.w3.org/1999/xlink" x="0px" y="0px"
	 viewBox="0 0 1200 1200" enable-background="new 0 0 1200 1200" xml:space="preserve">
<g>
	<g>
		<path d="M156.501,704.364h35.793v17.898h-58.198v-96.574h22.405V704.364z"/>
		<path d="M292.911,673.941c0,6.983-1.203,13.48-3.611,19.489c-2.408,6.009-5.799,11.233-10.173,15.675
			c-4.375,4.439-9.645,7.919-15.81,10.438c-6.163,2.519-13.003,3.779-20.514,3.779c-7.514,0-14.362-1.26-20.549-3.779
			c-6.187-2.519-11.476-5.998-15.875-10.438c-4.396-4.442-7.797-9.666-10.206-15.675s-3.614-12.506-3.614-19.489
			c0-6.98,1.206-13.477,3.614-19.486s5.81-11.223,10.206-15.643c4.399-4.42,9.688-7.889,15.875-10.408s13.035-3.776,20.549-3.776
			c7.511,0,14.351,1.268,20.514,3.808c6.166,2.543,11.436,6.023,15.81,10.443c4.375,4.418,7.765,9.634,10.173,15.643
			C291.709,660.531,292.911,667.004,292.911,673.941z M269.978,673.941c0-4.774-0.62-9.068-1.856-12.892
			c-1.238-3.822-3.015-7.061-5.335-9.71c-2.322-2.654-5.16-4.685-8.517-6.101c-3.361-1.413-7.182-2.12-11.468-2.12
			c-4.332,0-8.186,0.707-11.568,2.12c-3.379,1.416-6.23,3.447-8.55,6.101c-2.319,2.649-4.1,5.888-5.335,9.71
			c-1.238,3.824-1.856,8.118-1.856,12.892c0,4.817,0.618,9.138,1.856,12.957c1.235,3.824,3.015,7.061,5.335,9.712
			s5.17,4.674,8.55,6.066c3.382,1.392,7.236,2.088,11.568,2.088c4.286,0,8.107-0.696,11.468-2.088
			c3.358-1.392,6.195-3.414,8.517-6.066c2.319-2.651,4.097-5.888,5.335-9.712C269.358,683.078,269.978,678.758,269.978,673.941z"/>
		<path d="M357.472,645.308c-0.663,1.057-1.359,1.856-2.088,2.384c-0.731,0.529-1.669,0.796-2.818,0.796
			c-1.017,0-2.109-0.321-3.28-0.963c-1.173-0.639-2.497-1.357-3.978-2.152c-1.481-0.796-3.172-1.513-5.07-2.155
			c-1.901-0.639-4.067-0.96-6.495-0.96c-4.199,0-7.325,0.893-9.38,2.684c-2.055,1.791-3.083,4.207-3.083,7.258
			c0,1.945,0.62,3.557,1.856,4.839c1.238,1.281,2.862,2.387,4.874,3.315c2.009,0.928,4.307,1.78,6.894,2.551
			c2.584,0.774,5.224,1.634,7.921,2.584c2.694,0.952,5.335,2.066,7.919,3.35c2.587,1.281,4.884,2.916,6.894,4.903
			c2.012,1.99,3.636,4.407,4.874,7.261c1.235,2.848,1.856,6.284,1.856,10.306c0,4.464-0.774,8.639-2.319,12.528
			c-1.548,3.889-3.789,7.282-6.729,10.173c-2.94,2.897-6.562,5.17-10.869,6.829c-4.31,1.656-9.205,2.484-14.683,2.484
			c-3.005,0-6.066-0.31-9.181-0.928s-6.13-1.492-9.046-2.619c-2.918-1.127-5.658-2.462-8.221-4.008
			c-2.562-1.548-4.795-3.269-6.694-5.173l6.629-10.47c0.485-0.798,1.171-1.435,2.055-1.923c0.882-0.485,1.831-0.731,2.848-0.731
			c1.327,0,2.662,0.421,4.011,1.262c1.349,0.839,2.872,1.767,4.574,2.783c1.699,1.017,3.655,1.945,5.866,2.783
			c2.209,0.841,4.814,1.26,7.822,1.26c4.064,0,7.225-0.895,9.478-2.684c2.255-1.791,3.382-4.628,3.382-8.517
			c0-2.255-0.62-4.089-1.858-5.502c-1.235-1.413-2.862-2.587-4.871-3.514c-2.012-0.928-4.296-1.745-6.861-2.452
			c-2.562-0.707-5.192-1.491-7.886-2.352c-2.697-0.863-5.327-1.926-7.889-3.183c-2.562-1.26-4.849-2.918-6.859-4.973
			c-2.012-2.055-3.636-4.617-4.874-7.687c-1.235-3.072-1.856-6.861-1.856-11.368c0-3.622,0.731-7.158,2.187-10.605
			c1.459-3.447,3.601-6.519,6.43-9.216c2.829-2.692,6.298-4.847,10.408-6.462c4.108-1.613,8.814-2.417,14.117-2.417
			c2.961,0,5.845,0.232,8.65,0.696c2.808,0.464,5.47,1.149,7.989,2.055c2.519,0.906,4.871,1.985,7.058,3.247
			c2.187,1.257,4.143,2.684,5.866,4.275L357.472,645.308z"/>
		<path d="M445.628,625.687v17.763H418.45v78.812h-22.402V643.45h-27.176v-17.763H445.628z"/>
		<path d="M516.548,624.627c4.286,0,8.064,0.628,11.336,1.888c3.269,1.26,6.031,2.918,8.285,4.971
			c2.255,2.055,4.021,4.431,5.302,7.126c1.281,2.694,2.077,5.459,2.387,8.285l-13.256,2.651c-0.224,0.043-0.41,0.078-0.564,0.1
			c-0.156,0.024-0.321,0.035-0.499,0.035c-1.856,0-3.226-0.974-4.108-2.918c-1.017-2.298-2.201-4.043-3.547-5.238
			c-1.349-1.192-3.126-1.788-5.338-1.788c-1.545,0-2.894,0.289-4.043,0.86c-1.149,0.577-2.109,1.327-2.883,2.255
			c-0.774,0.928-1.359,2.012-1.756,3.247c-0.396,1.238-0.596,2.519-0.596,3.846c0,1.149,0.1,2.252,0.297,3.312
			c0.2,1.063,0.531,2.133,0.995,3.215c0.464,1.084,1.103,2.201,1.923,3.35c0.817,1.149,1.866,2.384,3.147,3.711l23.861,25.185
			c1.195-2.649,2.144-5.41,2.851-8.285c0.707-2.87,1.216-5.853,1.524-8.946c0.089-1.238,0.499-2.209,1.227-2.916
			c0.728-0.707,1.691-1.063,2.883-1.063h12.992c0,6.451-0.86,12.471-2.584,18.062c-1.723,5.591-4.178,10.705-7.358,15.344
			l20.282,21.345h-20.282c-1.017,0-1.923-0.054-2.719-0.167c-0.796-0.108-1.535-0.297-2.22-0.561
			c-0.685-0.264-1.338-0.642-1.955-1.127c-0.62-0.485-1.284-1.106-1.988-1.856l-4.178-4.375c-4.199,2.916-8.782,5.168-13.752,6.759
			c-4.971,1.591-10.265,2.387-15.875,2.387c-3.846,0-7.614-0.661-11.301-1.988c-3.692-1.327-6.972-3.215-9.844-5.669
			c-2.872-2.449-5.192-5.421-6.958-8.914c-1.769-3.49-2.654-7.401-2.654-11.73c0-2.918,0.453-5.68,1.359-8.285
			c0.906-2.611,2.177-5.027,3.811-7.261c1.634-2.23,3.59-4.261,5.866-6.098c2.276-1.831,4.763-3.433,7.457-4.804
			c-2.077-3.226-3.579-6.387-4.507-9.48s-1.392-6.098-1.392-9.016c0-3.444,0.628-6.705,1.888-9.774
			c1.26-3.072,3.094-5.766,5.502-8.086c2.409-2.319,5.37-4.164,8.882-5.534C507.966,625.312,511.998,624.627,516.548,624.627z
			 M496.533,693.362c0,2.123,0.318,4.043,0.96,5.766c0.639,1.723,1.556,3.204,2.751,4.442c1.192,1.235,2.619,2.198,4.275,2.88
			c1.656,0.688,3.501,1.03,5.534,1.03c2.959,0,5.71-0.388,8.253-1.16c2.541-0.774,4.914-1.866,7.126-3.282l-22.205-23.532
			c-2.433,1.99-4.156,4.154-5.17,6.497C497.04,688.348,496.533,690.8,496.533,693.362z"/>
		<path d="M664.095,625.687v17.232h-39.636v24.46h33.01v17.302h-33.01v37.581h-22.537v-96.574H664.095z"/>
		<path d="M771.075,673.941c0,6.983-1.203,13.48-3.611,19.489s-5.799,11.233-10.173,15.675c-4.375,4.439-9.645,7.919-15.81,10.438
			c-6.163,2.519-13.003,3.779-20.514,3.779c-7.514,0-14.362-1.26-20.549-3.779c-6.187-2.519-11.476-5.998-15.875-10.438
			c-4.396-4.442-7.797-9.666-10.206-15.675c-2.408-6.009-3.614-12.506-3.614-19.489c0-6.98,1.206-13.477,3.614-19.486
			c2.409-6.009,5.81-11.223,10.206-15.643c4.399-4.42,9.688-7.889,15.875-10.408c6.187-2.519,13.035-3.776,20.549-3.776
			c7.511,0,14.351,1.268,20.514,3.808c6.166,2.543,11.436,6.023,15.81,10.443c4.375,4.418,7.765,9.634,10.173,15.643
			C769.872,660.531,771.075,667.004,771.075,673.941z M748.141,673.941c0-4.774-0.62-9.068-1.856-12.892
			c-1.238-3.822-3.015-7.061-5.335-9.71c-2.322-2.654-5.16-4.685-8.517-6.101c-3.361-1.413-7.182-2.12-11.468-2.12
			c-4.331,0-8.186,0.707-11.568,2.12c-3.379,1.416-6.23,3.447-8.55,6.101c-2.319,2.649-4.1,5.888-5.335,9.71
			c-1.238,3.824-1.856,8.118-1.856,12.892c0,4.817,0.618,9.138,1.856,12.957c1.235,3.824,3.015,7.061,5.335,9.712
			c2.32,2.651,5.17,4.674,8.55,6.066c3.382,1.392,7.236,2.088,11.568,2.088c4.286,0,8.107-0.696,11.468-2.088
			c3.358-1.392,6.195-3.414,8.517-6.066c2.319-2.651,4.097-5.888,5.335-9.712C747.521,683.078,748.141,678.758,748.141,673.941z"/>
		<path d="M821.979,704.563c3.005,0,5.688-0.496,8.054-1.491c2.363-0.995,4.364-2.419,5.998-4.275
			c1.634-1.856,2.883-4.121,3.746-6.794c0.86-2.673,1.292-5.71,1.292-9.113v-57.202h22.405v57.202
			c0,5.923-0.963,11.357-2.883,16.307c-1.923,4.946-4.674,9.213-8.253,12.79c-3.579,3.582-7.932,6.365-13.057,8.356
			c-5.127,1.985-10.894,2.98-17.302,2.98c-6.451,0-12.239-0.995-17.367-2.98c-5.127-1.99-9.478-4.774-13.057-8.356
			c-3.579-3.576-6.319-7.843-8.221-12.79c-1.899-4.949-2.848-10.384-2.848-16.307v-57.202h22.402v57.138
			c0,3.401,0.432,6.441,1.295,9.111c0.86,2.676,2.109,4.952,3.744,6.829c1.634,1.877,3.636,3.312,5.998,4.307
			S818.975,704.563,821.979,704.563z"/>
		<path d="M892.306,625.819c0.663,0.089,1.26,0.254,1.791,0.496c0.529,0.243,1.036,0.588,1.524,1.028
			c0.485,0.442,1.038,1.038,1.656,1.788l45.869,57.998c-0.178-1.856-0.31-3.655-0.399-5.4c-0.089-1.748-0.132-3.393-0.132-4.938
			v-51.104h19.753v96.574H950.7c-1.723,0-3.18-0.264-4.375-0.796c-1.192-0.531-2.341-1.502-3.447-2.916l-45.535-57.534
			c0.132,1.678,0.243,3.326,0.332,4.936c0.086,1.616,0.132,3.129,0.132,4.542v51.768h-19.753v-96.574h11.8
			C890.825,625.687,891.642,625.733,892.306,625.819z"/>
		<path d="M1065.904,673.941c0,6.983-1.206,13.421-3.614,19.322c-2.409,5.901-5.799,11.004-10.173,15.311
			c-4.375,4.307-9.645,7.668-15.81,10.074c-6.163,2.411-13.003,3.614-20.514,3.614h-37.516v-96.574h37.516
			c7.511,0,14.351,1.216,20.514,3.644c6.166,2.433,11.436,5.791,15.81,10.076c4.375,4.288,7.765,9.38,10.173,15.279
			C1064.698,660.585,1065.904,667.004,1065.904,673.941z M1042.968,673.941c0-4.774-0.618-9.081-1.856-12.924
			c-1.238-3.846-3.015-7.104-5.335-9.777c-2.32-2.673-5.16-4.728-8.517-6.166c-3.361-1.435-7.182-2.155-11.468-2.155h-14.98v62.108
			h14.98c4.286,0,8.107-0.717,11.468-2.152c3.358-1.435,6.198-3.49,8.517-6.166c2.319-2.673,4.097-5.934,5.335-9.777
			C1042.35,683.089,1042.968,678.758,1042.968,673.941z"/>
	</g>
	<path d="M746.546,567.644L746.546,567.644c0,5.339,4.328,9.666,9.666,9.666h374.455v187.803H69.333V577.311h374.455
		c5.339,0,9.666-4.328,9.666-9.666l0,0c0-5.339-4.328-9.666-9.666-9.666H50v226.469h1100V557.978H756.212
		C750.873,557.978,746.546,562.306,746.546,567.644z"/>
	<g>
		<path d="M561.73,505.666c0.007-0.001,0.015-0.002,0.023-0.003v0C561.745,505.664,561.738,505.665,561.73,505.666z"/>
		<path d="M552.623,507.543c-0.008,0.001-0.015,0.002-0.023,0.003c-1.306,0.184-2.612,0.384-3.915,0.598
			c-0.126,0.021-0.252,0.041-0.378,0.061c-2.642,0.442-5.269,0.958-7.856,1.582c-0.251,0.061-0.501,0.126-0.751,0.189
			c-1.016,0.254-2.024,0.529-3.024,0.82c-0.294,0.086-0.588,0.169-0.881,0.258c-2.425,0.74-4.793,1.605-7.082,2.621
			c-0.318,0.141-0.631,0.293-0.946,0.441c-0.839,0.393-1.665,0.809-2.48,1.247c-0.321,0.173-0.643,0.342-0.96,0.522
			c-1.076,0.612-2.136,1.252-3.161,1.954c-6.589,4.514-11.31,10.385-14.17,16.818h0c0,0,0,0.001,0,0.001
			c-0.323,0.726-0.608,1.462-0.883,2.202l0,0c0,0.001-0.001,0.003-0.001,0.004c-0.533,1.434-0.99,2.886-1.342,4.357
			c-0.012,0.052-0.02,0.104-0.033,0.155c-0.124,0.525-0.229,1.052-0.33,1.58c-0.001,0.005-0.002,0.01-0.003,0.014
			c-0.091,0.479-0.176,0.958-0.248,1.439c-0.037,0.245-0.061,0.49-0.093,0.735c-0.036,0.278-0.075,0.554-0.105,0.832
			c-0.005,0.045-0.012,0.09-0.017,0.135c-0.052,0.504-0.089,1.007-0.12,1.512c-0.02,0.326-0.032,0.653-0.044,0.98
			c-0.004,0.121-0.013,0.243-0.017,0.364c-0.002,0.101-0.012,0.201-0.013,0.302c-0.009,0.529,0.004,1.057,0.018,1.585
			c0.009,0.363,0.019,0.726,0.038,1.088c0.008,0.158,0.007,0.316,0.017,0.473c0.038,0.565,0.108,1.126,0.172,1.689
			c0.04,0.355,0.071,0.71,0.122,1.064c0.017,0.118,0.027,0.237,0.045,0.355c0.098,0.64,0.236,1.275,0.368,1.91
			c0.065,0.314,0.113,0.631,0.186,0.944c0.016,0.066,0.028,0.132,0.044,0.198c0.231,0.957,0.504,1.905,0.814,2.845
			c0.014,0.041,0.022,0.083,0.036,0.124c0,0.001,0,0.003,0.001,0.004c0.001,0.003,0.002,0.005,0.003,0.008
			c0.296,0.885,0.637,1.758,1.004,2.623c0.16,0.378,0.339,0.749,0.512,1.122c0.212,0.454,0.427,0.906,0.658,1.353
			c0.123,0.239,0.223,0.486,0.351,0.722c0.132,0.243,0.292,0.475,0.429,0.716c0.168,0.294,0.346,0.583,0.524,0.873
			c0.801,1.316,1.659,2.607,2.641,3.841c0.307,0.385,0.655,0.749,0.98,1.125c0.181,0.212,0.363,0.423,0.55,0.631
			c0.339,0.375,0.675,0.751,1.031,1.117c0.035,0.036,0.074,0.07,0.109,0.105c0.642,0.653,1.293,1.301,1.994,1.919
			c0.989,0.872,2.052,1.697,3.158,2.493c0.017,0.013,0.033,0.027,0.05,0.039c0.809,0.591,1.65,1.16,2.53,1.7l0,0
			c0.001,0.001,0.002,0.001,0.003,0.001c0.293,0.18,0.591,0.344,0.887,0.514c0-0.005,0-0.01-0.001-0.015
			c0.597,0.341,1.198,0.668,1.806,0.968c0.001,0,0.002,0.001,0.003,0.002c0.258,0.127,0.519,0.246,0.779,0.366
			c0.002,0.001,0.003,0.001,0.005,0.002c0.712,0.328,1.432,0.631,2.157,0.908c0.002,0.001,0.004,0.002,0.006,0.003
			c0.224,0.085,0.446,0.179,0.67,0.259c0.001,0,0.002,0.001,0.003,0.001c0.849,0.304,1.709,0.57,2.573,0.812
			c0.082,0.023,0.162,0.055,0.244,0.077c0.176,0.048,0.354,0.086,0.531,0.131c0.009,0.002,0.019,0.005,0.029,0.007
			c0.793,0.204,1.59,0.385,2.393,0.544c0.136,0.027,0.27,0.067,0.406,0.092c0.135,0.025,0.274,0.039,0.41,0.063
			c0.171,0.031,0.344,0.05,0.516,0.079c0.697,0.118,1.395,0.233,2.098,0.322c0.049,0.006,0.098,0.013,0.146,0.02
			c0.061,0.009,0.121,0.018,0.182,0.026c0.001,0,0.003,0,0.003,0c1,0.119,2.006,0.209,3.016,0.279c0.001,0,0.003,0,0.005,0
			c0.237,0.017,0.475,0.028,0.713,0.042c0.82,0.049,1.641,0.085,2.465,0.108c0.228,0.006,0.456,0.015,0.684,0.019
			c1.027,0.021,2.056,0.028,3.087,0.019c0.001,0,0.002,0,0.003,0C545.216,561.179,546.563,534.222,552.623,507.543z"/>
		<path d="M689.945,548.431c-12.146,0.182-23.462,3.579-33.683,10.255l-0.083,0.052c-12.142,7.294-21.124,18.192-25.489,30.898
			c0.035,0.005-0.079,0.075-0.044,0.08c1.941,0.286,3.889,0.53,5.83,0.812c5.558,0.808,11.186,1.695,16.802,1.021
			c5.1-0.612,10.062-2.23,14.577-4.672c1.504-0.814,2.959-1.718,4.356-2.706c1.263-0.894,2.477-1.858,3.632-2.889
			c6.06-5.405,9.321-13.271,11.608-20.92c1.183-3.958,2.166-7.973,3.242-11.96C690.441,548.404,690.196,548.428,689.945,548.431z"/>
		<path d="M651.695,450.568c-0.15-0.105-0.275-0.232-0.408-0.352c-3.037,4.517-6.242,9.196-9.482,13.791
			c-1.003,1.422-2.008,2.832-3.011,4.227c-0.075,0.104-0.15,0.208-0.224,0.312c-1.015,1.408-2.027,2.8-3.033,4.164
			c-4.312,5.844-8.503,11.206-12.21,15.413c-3.129,3.55-8.302,6.349-14.182,8.561c-1.592,0.599-3.235,1.155-4.904,1.67
			c-0.054,0.017-0.109,0.032-0.163,0.049c-1.651,0.507-3.327,0.977-5.008,1.406c-3.565,0.91-7.123,1.654-10.451,2.255
			c-3.869,0.699-7.411,1.209-10.257,1.569c-0.072,0.009-0.155,0.021-0.226,0.03c-5.266,0.659-10.819,1.216-16.383,2
			c-6.06,26.68-7.408,53.637-4.668,80.045c4.013-0.036,8.036-0.264,11.979-0.42c2.074-0.082,4.141-0.149,6.205-0.204
			c3.322-0.088,6.631-0.119,9.933-0.106c5.919,0.024,11.958,0.263,17.899,0.816c3.031,0.282,6.055,0.646,9.064,1.104
			c2.871,0.437,5.753,1.178,8.623,1.473c0.131,0.014,2.269,0.333,2.274,0.315c4.167-15.582,14.74-28.39,27.965-36.335
			c13.35-8.721,27.377-11.576,41.385-10.557c-0.016,0.048-0.033,0.103-0.049,0.151c0.146-0.437,0.29-0.863,0.434-1.255
			c1.578-4.309,6.377-12.051,12.327-20.791c0.526-0.773,1.061-1.552,1.604-2.34c0.368-0.534,0.735-1.066,1.11-1.605
			c0.567-0.816,1.141-1.635,1.721-2.46c3.483-4.953,7.156-10.026,10.709-14.847c-0.039-0.026-0.083-0.041-0.121-0.068
			L651.695,450.568z"/>
		<path d="M744.583,468.478c-0.003-0.198,0.023-0.397,0.01-0.594c-0.023-0.346-0.062-0.691-0.118-1.033
			c-0.038-0.234-0.126-0.457-0.179-0.688c-0.026-0.118-0.06-0.232-0.091-0.35c-0.165-0.629-0.385-1.237-0.661-1.831
			c-0.08-0.173-0.156-0.344-0.245-0.514c-0.09-0.17-0.148-0.354-0.248-0.52c-0.212-0.353-0.487-0.67-0.74-1.001
			c-0.127-0.167-0.234-0.342-0.372-0.503c-0.524-0.609-1.104-1.182-1.777-1.68l-2.185-1.621l-12.374-9.179l-42.112-31.239
			c-4.979-3.693-12.024-2.553-15.583,2.522l-12.46,17.765c-1.315,1.875-0.975,4.395,0.688,5.887c0.133,0.12,0.258,0.246,0.408,0.352
			l44.359,31.112l9.762,6.847l14.332,10.052c0.039,0.027,0.082,0.042,0.121,0.068l0,0c0.251,0.165,0.513,0.302,0.783,0.41
			c0.538,0.218,1.104,0.325,1.667,0.326c0.281,0.001,0.561-0.025,0.837-0.077c0.026-0.005,0.051-0.016,0.077-0.021
			c0.247-0.05,0.491-0.117,0.727-0.209c0.063-0.025,0.121-0.064,0.183-0.091c0.012-0.006,0.024-0.013,0.037-0.018
			c0.182-0.083,0.366-0.164,0.536-0.272c0.136-0.086,0.258-0.196,0.385-0.297c0.101-0.077,0.206-0.146,0.3-0.234
			c0.214-0.203,0.411-0.429,0.586-0.679l11.382-16.229c0.404-0.577,0.735-1.182,1.014-1.802c0.092-0.203,0.15-0.414,0.229-0.621
			c0.161-0.424,0.314-0.85,0.42-1.285c0.06-0.248,0.095-0.499,0.138-0.75c0.069-0.402,0.126-0.805,0.15-1.21
			C744.586,469.005,744.587,468.741,744.583,468.478z"/>
	</g>
</g>
</svg>
